<svg xmlns="http://www.w3.org/2000/svg" viewBox="0 0 1964.8 662.6" style="enable-background:new 0 0 1964.8 662.6" xml:space="preserve"><linearGradient id="a" gradientUnits="userSpaceOnUse" x1="56.657" y1="331.315" x2="1908.103" y2="331.315"><stop offset="0" style="stop-color:#ff003d"/><stop offset="1" style="stop-color:#ad3dff"/></linearGradient><path d="M119 604.2c41.5 33.4 102.4 50.1 182.7 50.1h-245V457c0 64.8 20.7 113.8 62.3 147.2zm146.2-56.5c23.7 21.5 59.1 32.2 106.1 32.2 49 0 87.7-11.9 115.9-35.6 28.2-23.7 42.3-56.4 42.3-98.2V8.3H229.7v443.3c0 42.6 11.8 74.7 35.5 96.1zm159.2 87.4c-37.9 12.8-78.8 19.3-122.7 19.3h228.6l.5-77.1c-33 25.7-68.5 45-106.4 57.8zm394.2-229.8c15.6 14.2 41.6 21.2 78 21.2 52.9 0 95-15.3 126.5-45.8 31.5-30.6 47.3-71.7 47.3-123.6 0-59.9-20.6-106.4-61.8-139.8-41.2-33.4-99-50-173.2-50h-40.1V333c-.1 34 7.6 58.1 23.3 72.3zm348.3 7.4c-63 44.6-141.9 66.9-236.6 66.9-25.8 0-49.9-1.3-72.3-4.1s-43.4-7.1-62.8-12.9v191.9h466.3v-411c-.1 68.2-31.6 124.6-94.6 169.2zM869.7 8.3c123.3 0 219.5 20.8 288.3 62.3 68.9 41.5 103.3 99.2 103.3 172.9V8.3H869.7zm854.6 437c0-48.4-18-85.8-54.1-112-36.1-26.2-87.5-39.4-154.5-39.4H1441v301.4h64.4c72.9 0 127.7-12.5 164.2-37.5 36.5-25 54.7-62.5 54.7-112.5zM1601.4 89.5c-25.8-14-63.5-21-113.4-21h-47v165.2h58c45.5 0 80.4-7.2 104.7-21.4 24.2-14.3 36.4-34.7 36.4-61.4-.1-27-13-47.5-38.7-61.4zm-63.2-81.2c90.7 0 158.7 11.1 204 33.3 45.4 22.2 68 55.3 68 99.4 0 28.4-14.5 52.9-43.6 73.5-29 20.7-69.2 34.7-120.3 42.1 82 6.2 146.1 25.9 192.4 59.1 46.2 33.3 69.3 76.4 69.3 129.6V8.3h-369.8zm281 588.4c-59.3 38.5-137.1 57.7-233.2 57.7h322.2V445.3c-.1 62.4-29.8 112.9-89 151.4z" style="fill:url(#a)"/></svg>